<?xml version="1.0" encoding="UTF-8" standalone="no"?>
<!DOCTYPE svg PUBLIC "-//W3C//DTD SVG 1.1//EN"
 "http://www.w3.org/Graphics/SVG/1.1/DTD/svg11.dtd">
<!-- Generated by graphviz version 2.40.1 (20161225.0304)
 -->
<!-- Title: compactRelationshipsDiagram Pages: 1 -->
<svg width="796pt" height="627pt"
 viewBox="0.00 0.00 796.00 627.20" xmlns="http://www.w3.org/2000/svg" xmlns:xlink="http://www.w3.org/1999/xlink">
<g id="graph0" class="graph" transform="scale(1 1) rotate(0) translate(4 623.2)">
<title>compactRelationshipsDiagram</title>
<polygon fill="#ffffff" stroke="transparent" points="-4,4 -4,-623.2 792,-623.2 792,4 -4,4"/>
<text text-anchor="middle" x="72.4936" y="-7.3" font-family="Helvetica,sans-Serif" font-size="11.00" fill="#000000">Generated by SchemaSpy</text>
<!-- referent_relations.csv -->
<g id="node1" class="node">
<title>referent_relations.csv</title>
<g id="a_node1"><a xlink:href="../../tables/referent_relations.csv.html" xlink:title="referent_relations.csv" target="_top">
<polygon fill="#ffffff" stroke="transparent" points="584.5,-488.2 584.5,-615.2 753.5,-615.2 753.5,-488.2 584.5,-488.2"/>
<polygon fill="#f5f5f5" stroke="transparent" points="585,-591.7 585,-614.7 754,-614.7 754,-591.7 585,-591.7"/>
<polygon fill="none" stroke="#000000" points="585,-591.7 585,-614.7 754,-614.7 754,-591.7 585,-591.7"/>
<text text-anchor="start" x="590" y="-600.3" font-family="Helvetica,sans-Serif" font-weight="bold" font-size="11.00" fill="#000000">referent_relations.csv</text>
<text text-anchor="start" x="719.5219" y="-599.8" font-family="Helvetica,sans-Serif" font-size="11.00" fill="#000000">[table]</text>
<polygon fill="none" stroke="#000000" points="585,-569.7 585,-591.7 754,-591.7 754,-569.7 585,-569.7"/>
<image xlink:href="../../images/primaryKeys.png" width="11px" height="12px" preserveAspectRatio="xMinYMin meet" x="590" y="-586.7"/>
<text text-anchor="start" x="614" y="-576.8" font-family="Helvetica,sans-Serif" font-size="11.00" fill="#000000">cldf_id</text>
<polygon fill="none" stroke="#000000" points="585,-547.7 585,-569.7 754,-569.7 754,-547.7 585,-547.7"/>
<image xlink:href="../../images/foreignKeys.png" width="11px" height="12px" preserveAspectRatio="xMinYMin meet" x="590" y="-564.7"/>
<text text-anchor="start" x="614" y="-554.8" font-family="Helvetica,sans-Serif" font-size="11.00" fill="#000000">Source_Referent_ID</text>
<polygon fill="none" stroke="#000000" points="585,-525.7 585,-547.7 754,-547.7 754,-525.7 585,-525.7"/>
<image xlink:href="../../images/foreignKeys.png" width="11px" height="12px" preserveAspectRatio="xMinYMin meet" x="590" y="-542.7"/>
<text text-anchor="start" x="614" y="-532.8" font-family="Helvetica,sans-Serif" font-size="11.00" fill="#000000">Target_Referent_ID</text>
<polygon fill="none" stroke="#000000" points="585,-506.7 585,-525.7 754,-525.7 754,-506.7 585,-506.7"/>
<text text-anchor="start" x="588" y="-512.8" font-family="Helvetica,sans-Serif" font-size="11.00" fill="#000000">...</text>
<polygon fill="#ffffff" stroke="transparent" points="585,-487.7 585,-506.7 652,-506.7 652,-487.7 585,-487.7"/>
<polygon fill="none" stroke="#000000" points="585,-487.7 585,-506.7 652,-506.7 652,-487.7 585,-487.7"/>
<text text-anchor="start" x="588" y="-493.8" font-family="Helvetica,sans-Serif" font-size="11.00" fill="#000000">&lt; 2</text>
<polygon fill="#ffffff" stroke="transparent" points="652,-487.7 652,-506.7 719,-506.7 719,-487.7 652,-487.7"/>
<polygon fill="none" stroke="#000000" points="652,-487.7 652,-506.7 719,-506.7 719,-487.7 652,-487.7"/>
<text text-anchor="start" x="677.4956" y="-493.8" font-family="Helvetica,sans-Serif" font-size="11.00" fill="#000000">96 rows</text>
<polygon fill="#ffffff" stroke="transparent" points="719,-487.7 719,-506.7 754,-506.7 754,-487.7 719,-487.7"/>
<polygon fill="none" stroke="#000000" points="719,-487.7 719,-506.7 754,-506.7 754,-487.7 719,-487.7"/>
<text text-anchor="start" x="744.8862" y="-493.8" font-family="Helvetica,sans-Serif" font-size="11.00" fill="#000000"> &#160;</text>
</a>
</g>
</g>
<!-- referents.csv -->
<g id="node11" class="node">
<title>referents.csv</title>
<g id="a_node11"><a xlink:href="../../tables/referents.csv.html" xlink:title="referents.csv" target="_top">
<polygon fill="#ffffff" stroke="transparent" points="337.5,-488.2 337.5,-571.2 454.5,-571.2 454.5,-488.2 337.5,-488.2"/>
<polygon fill="#f5f5f5" stroke="transparent" points="338,-547.7 338,-570.7 455,-570.7 455,-547.7 338,-547.7"/>
<polygon fill="none" stroke="#000000" points="338,-547.7 338,-570.7 455,-570.7 455,-547.7 338,-547.7"/>
<text text-anchor="start" x="343" y="-556.3" font-family="Helvetica,sans-Serif" font-weight="bold" font-size="11.00" fill="#000000">referents.csv</text>
<text text-anchor="start" x="420.5219" y="-555.8" font-family="Helvetica,sans-Serif" font-size="11.00" fill="#000000">[table]</text>
<polygon fill="none" stroke="#000000" points="338,-525.7 338,-547.7 455,-547.7 455,-525.7 338,-525.7"/>
<image xlink:href="../../images/primaryKeys.png" width="11px" height="12px" preserveAspectRatio="xMinYMin meet" x="343" y="-542.7"/>
<text text-anchor="start" x="359" y="-532.8" font-family="Helvetica,sans-Serif" font-size="11.00" fill="#000000">cldf_id</text>
<polygon fill="none" stroke="#000000" points="338,-506.7 338,-525.7 455,-525.7 455,-506.7 338,-506.7"/>
<text text-anchor="start" x="341" y="-512.8" font-family="Helvetica,sans-Serif" font-size="11.00" fill="#000000">...</text>
<polygon fill="#ffffff" stroke="transparent" points="338,-487.7 338,-506.7 367,-506.7 367,-487.7 338,-487.7"/>
<polygon fill="none" stroke="#000000" points="338,-487.7 338,-506.7 367,-506.7 367,-487.7 338,-487.7"/>
<text text-anchor="start" x="341" y="-493.8" font-family="Helvetica,sans-Serif" font-size="11.00" fill="#000000"> &#160;</text>
<polygon fill="#ffffff" stroke="transparent" points="367,-487.7 367,-506.7 425,-506.7 425,-487.7 367,-487.7"/>
<polygon fill="none" stroke="#000000" points="367,-487.7 367,-506.7 425,-506.7 425,-487.7 367,-487.7"/>
<text text-anchor="start" x="377.3807" y="-493.8" font-family="Helvetica,sans-Serif" font-size="11.00" fill="#000000">214 rows</text>
<polygon fill="#ffffff" stroke="transparent" points="425,-487.7 425,-506.7 455,-506.7 455,-487.7 425,-487.7"/>
<polygon fill="none" stroke="#000000" points="425,-487.7 425,-506.7 455,-506.7 455,-487.7 425,-487.7"/>
<text text-anchor="start" x="436.4053" y="-493.8" font-family="Helvetica,sans-Serif" font-size="11.00" fill="#000000">3 &gt;</text>
</a>
</g>
</g>
<!-- referent_relations.csv&#45;&gt;referents.csv -->
<g id="edge13" class="edge">
<title>referent_relations.csv:w&#45;&gt;referents.csv:e</title>
<path fill="none" stroke="#000000" d="M570.5482,-558.22C523.7967,-555.0028 508.449,-536.7 455,-536.7"/>
<polygon fill="#000000" stroke="#000000" points="577.0044,-558.4344 584.8805,-562.298 581.0022,-558.5672 585,-558.7 585,-558.7 585,-558.7 581.0022,-558.5672 585.1195,-555.102 577.0044,-558.4344 577.0044,-558.4344"/>
<ellipse fill="none" stroke="#000000" cx="573.8062" cy="-558.3282" rx="3.2" ry="3.2"/>
</g>
<!-- referent_relations.csv&#45;&gt;referents.csv -->
<g id="edge14" class="edge">
<title>referent_relations.csv:w&#45;&gt;referents.csv:e</title>
<path fill="none" stroke="#000000" d="M570.4136,-536.7C524.277,-536.7 507.5868,-536.7 455,-536.7"/>
<polygon fill="#000000" stroke="#000000" points="577,-536.7001 585,-540.3 581,-536.7 585,-536.7 585,-536.7 585,-536.7 581,-536.7 585,-533.1 577,-536.7001 577,-536.7001"/>
<ellipse fill="none" stroke="#000000" cx="573.8" cy="-536.7001" rx="3.2" ry="3.2"/>
</g>
<!-- MediaTable -->
<g id="node2" class="node">
<title>MediaTable</title>
<g id="a_node2"><a xlink:href="../../tables/MediaTable.html" xlink:title="MediaTable" target="_top">
<polygon fill="#ffffff" stroke="transparent" points="304.5,-192.2 304.5,-297.2 487.5,-297.2 487.5,-192.2 304.5,-192.2"/>
<polygon fill="#f5f5f5" stroke="transparent" points="305,-273.7 305,-296.7 488,-296.7 488,-273.7 305,-273.7"/>
<polygon fill="none" stroke="#000000" points="305,-273.7 305,-296.7 488,-296.7 488,-273.7 305,-273.7"/>
<text text-anchor="start" x="310" y="-282.3" font-family="Helvetica,sans-Serif" font-weight="bold" font-size="11.00" fill="#000000">MediaTable</text>
<text text-anchor="start" x="453.0437" y="-281.8" font-family="Helvetica,sans-Serif" font-size="11.00" fill="#000000">[table]</text>
<polygon fill="none" stroke="#000000" points="305,-251.7 305,-273.7 488,-273.7 488,-251.7 305,-251.7"/>
<image xlink:href="../../images/primaryKeys.png" width="11px" height="12px" preserveAspectRatio="xMinYMin meet" x="310" y="-268.7"/>
<text text-anchor="start" x="325" y="-258.8" font-family="Helvetica,sans-Serif" font-size="11.00" fill="#000000">cldf_id</text>
<polygon fill="none" stroke="#000000" points="305,-229.7 305,-251.7 488,-251.7 488,-229.7 305,-229.7"/>
<image xlink:href="../../images/foreignKeys.png" width="11px" height="12px" preserveAspectRatio="xMinYMin meet" x="310" y="-246.7"/>
<text text-anchor="start" x="325" y="-236.8" font-family="Helvetica,sans-Serif" font-size="11.00" fill="#000000">cldf_contributionReference</text>
<polygon fill="none" stroke="#000000" points="305,-210.7 305,-229.7 488,-229.7 488,-210.7 305,-210.7"/>
<text text-anchor="start" x="308" y="-216.8" font-family="Helvetica,sans-Serif" font-size="11.00" fill="#000000">...</text>
<polygon fill="#ffffff" stroke="transparent" points="305,-191.7 305,-210.7 374,-210.7 374,-191.7 305,-191.7"/>
<polygon fill="none" stroke="#000000" points="305,-191.7 305,-210.7 374,-210.7 374,-191.7 305,-191.7"/>
<text text-anchor="start" x="308" y="-197.8" font-family="Helvetica,sans-Serif" font-size="11.00" fill="#000000">&lt; 1</text>
<polygon fill="#ffffff" stroke="transparent" points="374,-191.7 374,-210.7 442,-210.7 442,-191.7 374,-191.7"/>
<polygon fill="none" stroke="#000000" points="374,-191.7 374,-210.7 442,-210.7 442,-191.7 374,-191.7"/>
<text text-anchor="start" x="400.4956" y="-197.8" font-family="Helvetica,sans-Serif" font-size="11.00" fill="#000000">33 rows</text>
<polygon fill="#ffffff" stroke="transparent" points="442,-191.7 442,-210.7 488,-210.7 488,-191.7 442,-191.7"/>
<polygon fill="none" stroke="#000000" points="442,-191.7 442,-210.7 488,-210.7 488,-191.7 442,-191.7"/>
<text text-anchor="start" x="469.4053" y="-197.8" font-family="Helvetica,sans-Serif" font-size="11.00" fill="#000000">2 &gt;</text>
</a>
</g>
</g>
<!-- ContributionTable -->
<g id="node10" class="node">
<title>ContributionTable</title>
<g id="a_node10"><a xlink:href="../../tables/ContributionTable.html" xlink:title="ContributionTable" target="_top">
<polygon fill="#ffffff" stroke="transparent" points="8,-167.2 8,-250.2 234,-250.2 234,-167.2 8,-167.2"/>
<polygon fill="#f5f5f5" stroke="transparent" points="8,-226.7 8,-249.7 234,-249.7 234,-226.7 8,-226.7"/>
<polygon fill="none" stroke="#000000" points="8,-226.7 8,-249.7 234,-249.7 234,-226.7 8,-226.7"/>
<text text-anchor="start" x="13" y="-235.3" font-family="Helvetica,sans-Serif" font-weight="bold" font-size="11.00" fill="#000000">ContributionTable</text>
<text text-anchor="start" x="199.0437" y="-234.8" font-family="Helvetica,sans-Serif" font-size="11.00" fill="#000000">[table]</text>
<polygon fill="none" stroke="#000000" points="8,-204.7 8,-226.7 234,-226.7 234,-204.7 8,-204.7"/>
<image xlink:href="../../images/primaryKeys.png" width="11px" height="12px" preserveAspectRatio="xMinYMin meet" x="13" y="-221.7"/>
<text text-anchor="start" x="28" y="-211.8" font-family="Helvetica,sans-Serif" font-size="11.00" fill="#000000">cldf_id</text>
<polygon fill="none" stroke="#000000" points="8,-185.7 8,-204.7 234,-204.7 234,-185.7 8,-185.7"/>
<text text-anchor="start" x="11" y="-191.8" font-family="Helvetica,sans-Serif" font-size="11.00" fill="#000000">...</text>
<polygon fill="#ffffff" stroke="transparent" points="8,-166.7 8,-185.7 97,-185.7 97,-166.7 8,-166.7"/>
<polygon fill="none" stroke="#000000" points="8,-166.7 8,-185.7 97,-185.7 97,-166.7 8,-166.7"/>
<text text-anchor="start" x="11" y="-172.8" font-family="Helvetica,sans-Serif" font-size="11.00" fill="#000000"> &#160;</text>
<polygon fill="#ffffff" stroke="transparent" points="97,-166.7 97,-185.7 174,-185.7 174,-166.7 97,-166.7"/>
<polygon fill="none" stroke="#000000" points="97,-166.7 97,-185.7 174,-185.7 174,-166.7 97,-166.7"/>
<text text-anchor="start" x="138.6105" y="-172.8" font-family="Helvetica,sans-Serif" font-size="11.00" fill="#000000">6 rows</text>
<polygon fill="#ffffff" stroke="transparent" points="174,-166.7 174,-185.7 234,-185.7 234,-166.7 174,-166.7"/>
<polygon fill="none" stroke="#000000" points="174,-166.7 174,-185.7 234,-185.7 234,-166.7 174,-166.7"/>
<text text-anchor="start" x="215.4053" y="-172.8" font-family="Helvetica,sans-Serif" font-size="11.00" fill="#000000">4 &gt;</text>
</a>
</g>
</g>
<!-- MediaTable&#45;&gt;ContributionTable -->
<g id="edge12" class="edge">
<title>MediaTable:w&#45;&gt;ContributionTable:e</title>
<path fill="none" stroke="#000000" d="M290.6458,-238.9021C269.4127,-233.1698 261.9659,-215.7 234,-215.7"/>
<polygon fill="#000000" stroke="#000000" points="297.062,-239.7057 304.5526,-244.2721 301.031,-240.2028 305,-240.7 305,-240.7 305,-240.7 301.031,-240.2028 305.4474,-237.1279 297.062,-239.7057 297.062,-239.7057"/>
<ellipse fill="none" stroke="#000000" cx="293.8868" cy="-239.3079" rx="3.2" ry="3.2"/>
</g>
<!-- ContributionTable_MediaTable -->
<g id="node3" class="node">
<title>ContributionTable_MediaTable</title>
<g id="a_node3"><a xlink:href="../../tables/ContributionTable_MediaTable.html" xlink:title="ContributionTable_MediaTable" target="_top">
<polygon fill="#ffffff" stroke="transparent" points="558,-100.2 558,-205.2 780,-205.2 780,-100.2 558,-100.2"/>
<polygon fill="#f5f5f5" stroke="transparent" points="558,-181.7 558,-204.7 780,-204.7 780,-181.7 558,-181.7"/>
<polygon fill="none" stroke="#000000" points="558,-181.7 558,-204.7 780,-204.7 780,-181.7 558,-181.7"/>
<text text-anchor="start" x="563" y="-190.3" font-family="Helvetica,sans-Serif" font-weight="bold" font-size="11.00" fill="#000000">ContributionTable_MediaTable</text>
<text text-anchor="start" x="745.5219" y="-189.8" font-family="Helvetica,sans-Serif" font-size="11.00" fill="#000000">[table]</text>
<polygon fill="none" stroke="#000000" points="558,-159.7 558,-181.7 780,-181.7 780,-159.7 558,-159.7"/>
<image xlink:href="../../images/foreignKeys.png" width="11px" height="12px" preserveAspectRatio="xMinYMin meet" x="563" y="-176.7"/>
<text text-anchor="start" x="587" y="-166.8" font-family="Helvetica,sans-Serif" font-size="11.00" fill="#000000">ContributionTable_cldf_id</text>
<polygon fill="none" stroke="#000000" points="558,-137.7 558,-159.7 780,-159.7 780,-137.7 558,-137.7"/>
<image xlink:href="../../images/foreignKeys.png" width="11px" height="12px" preserveAspectRatio="xMinYMin meet" x="563" y="-154.7"/>
<text text-anchor="start" x="587" y="-144.8" font-family="Helvetica,sans-Serif" font-size="11.00" fill="#000000">MediaTable_cldf_id</text>
<polygon fill="none" stroke="#000000" points="558,-118.7 558,-137.7 780,-137.7 780,-118.7 558,-118.7"/>
<text text-anchor="start" x="561" y="-124.8" font-family="Helvetica,sans-Serif" font-size="11.00" fill="#000000">...</text>
<polygon fill="#ffffff" stroke="transparent" points="558,-99.7 558,-118.7 651,-118.7 651,-99.7 558,-99.7"/>
<polygon fill="none" stroke="#000000" points="558,-99.7 558,-118.7 651,-118.7 651,-99.7 558,-99.7"/>
<text text-anchor="start" x="561" y="-105.8" font-family="Helvetica,sans-Serif" font-size="11.00" fill="#000000">&lt; 2</text>
<polygon fill="#ffffff" stroke="transparent" points="651,-99.7 651,-118.7 731,-118.7 731,-99.7 651,-99.7"/>
<polygon fill="none" stroke="#000000" points="651,-99.7 651,-118.7 731,-118.7 731,-99.7 651,-99.7"/>
<text text-anchor="start" x="689.4956" y="-105.8" font-family="Helvetica,sans-Serif" font-size="11.00" fill="#000000">30 rows</text>
<polygon fill="#ffffff" stroke="transparent" points="731,-99.7 731,-118.7 780,-118.7 780,-99.7 731,-99.7"/>
<polygon fill="none" stroke="#000000" points="731,-99.7 731,-118.7 780,-118.7 780,-99.7 731,-99.7"/>
<text text-anchor="start" x="770.8862" y="-105.8" font-family="Helvetica,sans-Serif" font-size="11.00" fill="#000000"> &#160;</text>
</a>
</g>
</g>
<!-- ContributionTable_MediaTable&#45;&gt;MediaTable -->
<g id="edge2" class="edge">
<title>ContributionTable_MediaTable:w&#45;&gt;MediaTable:e</title>
<path fill="none" stroke="#000000" d="M543.4798,-151.7492C507.0637,-169.8784 541.6497,-262.7 488,-262.7"/>
<polygon fill="#000000" stroke="#000000" points="550.1708,-150.3442 558.7399,-152.2232 554.0854,-149.5221 558,-148.7 558,-148.7 558,-148.7 554.0854,-149.5221 557.2601,-145.1768 550.1708,-150.3442 550.1708,-150.3442"/>
<ellipse fill="none" stroke="#000000" cx="547.0391" cy="-151.0018" rx="3.2" ry="3.2"/>
</g>
<!-- ContributionTable_MediaTable&#45;&gt;ContributionTable -->
<g id="edge1" class="edge">
<title>ContributionTable_MediaTable:w&#45;&gt;ContributionTable:e</title>
<path fill="none" stroke="#000000" d="M543.285,-170.5437C428.8333,-168.104 387.8474,-138.502 275,-181.7 252.8918,-190.163 257.6727,-215.7 234,-215.7"/>
<polygon fill="#000000" stroke="#000000" points="550.0005,-170.615 557.9617,-174.2998 554.0002,-170.6575 558,-170.7 558,-170.7 558,-170.7 554.0002,-170.6575 558.0383,-167.1002 550.0005,-170.615 550.0005,-170.615"/>
<ellipse fill="none" stroke="#000000" cx="546.8006" cy="-170.581" rx="3.2" ry="3.2"/>
</g>
<!-- SourceTable -->
<g id="node4" class="node">
<title>SourceTable</title>
<g id="a_node4"><a xlink:href="../../tables/SourceTable.html" xlink:title="SourceTable" target="_top">
<polygon fill="#ffffff" stroke="transparent" points="65,-38.2 65,-121.2 177,-121.2 177,-38.2 65,-38.2"/>
<polygon fill="#f5f5f5" stroke="transparent" points="65,-97.7 65,-120.7 177,-120.7 177,-97.7 65,-97.7"/>
<polygon fill="none" stroke="#000000" points="65,-97.7 65,-120.7 177,-120.7 177,-97.7 65,-97.7"/>
<text text-anchor="start" x="70" y="-106.3" font-family="Helvetica,sans-Serif" font-weight="bold" font-size="11.00" fill="#000000">SourceTable</text>
<text text-anchor="start" x="142.5219" y="-105.8" font-family="Helvetica,sans-Serif" font-size="11.00" fill="#000000">[table]</text>
<polygon fill="none" stroke="#000000" points="65,-75.7 65,-97.7 177,-97.7 177,-75.7 65,-75.7"/>
<image xlink:href="../../images/primaryKeys.png" width="11px" height="12px" preserveAspectRatio="xMinYMin meet" x="70" y="-92.7"/>
<text text-anchor="start" x="89" y="-82.8" font-family="Helvetica,sans-Serif" font-size="11.00" fill="#000000">id</text>
<polygon fill="none" stroke="#000000" points="65,-56.7 65,-75.7 177,-75.7 177,-56.7 65,-56.7"/>
<text text-anchor="start" x="68" y="-62.8" font-family="Helvetica,sans-Serif" font-size="11.00" fill="#000000">...</text>
<polygon fill="#ffffff" stroke="transparent" points="65,-37.7 65,-56.7 100,-56.7 100,-37.7 65,-37.7"/>
<polygon fill="none" stroke="#000000" points="65,-37.7 65,-56.7 100,-56.7 100,-37.7 65,-37.7"/>
<text text-anchor="start" x="68" y="-43.8" font-family="Helvetica,sans-Serif" font-size="11.00" fill="#000000"> &#160;</text>
<polygon fill="#ffffff" stroke="transparent" points="100,-37.7 100,-56.7 144,-56.7 144,-37.7 100,-37.7"/>
<polygon fill="none" stroke="#000000" points="100,-37.7 100,-56.7 144,-56.7 144,-37.7 100,-37.7"/>
<text text-anchor="start" x="114.1105" y="-43.8" font-family="Helvetica,sans-Serif" font-size="11.00" fill="#000000">1 row</text>
<polygon fill="#ffffff" stroke="transparent" points="144,-37.7 144,-56.7 177,-56.7 177,-37.7 144,-37.7"/>
<polygon fill="none" stroke="#000000" points="144,-37.7 144,-56.7 177,-56.7 177,-37.7 144,-37.7"/>
<text text-anchor="start" x="158.4053" y="-43.8" font-family="Helvetica,sans-Serif" font-size="11.00" fill="#000000">1 &gt;</text>
</a>
</g>
</g>
<!-- ExampleTable_MediaTable -->
<g id="node5" class="node">
<title>ExampleTable_MediaTable</title>
<g id="a_node5"><a xlink:href="../../tables/ExampleTable_MediaTable.html" xlink:title="ExampleTable_MediaTable" target="_top">
<polygon fill="#ffffff" stroke="transparent" points="571,-230.2 571,-335.2 767,-335.2 767,-230.2 571,-230.2"/>
<polygon fill="#f5f5f5" stroke="transparent" points="571,-311.7 571,-334.7 767,-334.7 767,-311.7 571,-311.7"/>
<polygon fill="none" stroke="#000000" points="571,-311.7 571,-334.7 767,-334.7 767,-311.7 571,-311.7"/>
<text text-anchor="start" x="576" y="-320.3" font-family="Helvetica,sans-Serif" font-weight="bold" font-size="11.00" fill="#000000">ExampleTable_MediaTable</text>
<text text-anchor="start" x="732.5219" y="-319.8" font-family="Helvetica,sans-Serif" font-size="11.00" fill="#000000">[table]</text>
<polygon fill="none" stroke="#000000" points="571,-289.7 571,-311.7 767,-311.7 767,-289.7 571,-289.7"/>
<image xlink:href="../../images/foreignKeys.png" width="11px" height="12px" preserveAspectRatio="xMinYMin meet" x="576" y="-306.7"/>
<text text-anchor="start" x="600" y="-296.8" font-family="Helvetica,sans-Serif" font-size="11.00" fill="#000000">ExampleTable_cldf_id</text>
<polygon fill="none" stroke="#000000" points="571,-267.7 571,-289.7 767,-289.7 767,-267.7 571,-267.7"/>
<image xlink:href="../../images/foreignKeys.png" width="11px" height="12px" preserveAspectRatio="xMinYMin meet" x="576" y="-284.7"/>
<text text-anchor="start" x="600" y="-274.8" font-family="Helvetica,sans-Serif" font-size="11.00" fill="#000000">MediaTable_cldf_id</text>
<polygon fill="none" stroke="#000000" points="571,-248.7 571,-267.7 767,-267.7 767,-248.7 571,-248.7"/>
<text text-anchor="start" x="574" y="-254.8" font-family="Helvetica,sans-Serif" font-size="11.00" fill="#000000">...</text>
<polygon fill="#ffffff" stroke="transparent" points="571,-229.7 571,-248.7 644,-248.7 644,-229.7 571,-229.7"/>
<polygon fill="none" stroke="#000000" points="571,-229.7 571,-248.7 644,-248.7 644,-229.7 571,-229.7"/>
<text text-anchor="start" x="574" y="-235.8" font-family="Helvetica,sans-Serif" font-size="11.00" fill="#000000">&lt; 2</text>
<polygon fill="#ffffff" stroke="transparent" points="644,-229.7 644,-248.7 729,-248.7 729,-229.7 644,-229.7"/>
<polygon fill="none" stroke="#000000" points="644,-229.7 644,-248.7 729,-248.7 729,-229.7 644,-229.7"/>
<text text-anchor="start" x="672.2089" y="-235.8" font-family="Helvetica,sans-Serif" font-size="11.00" fill="#000000">4,445 rows</text>
<polygon fill="#ffffff" stroke="transparent" points="729,-229.7 729,-248.7 767,-248.7 767,-229.7 729,-229.7"/>
<polygon fill="none" stroke="#000000" points="729,-229.7 729,-248.7 767,-248.7 767,-229.7 729,-229.7"/>
<text text-anchor="start" x="757.8862" y="-235.8" font-family="Helvetica,sans-Serif" font-size="11.00" fill="#000000"> &#160;</text>
</a>
</g>
</g>
<!-- ExampleTable_MediaTable&#45;&gt;MediaTable -->
<g id="edge9" class="edge">
<title>ExampleTable_MediaTable:w&#45;&gt;MediaTable:e</title>
<path fill="none" stroke="#000000" d="M556.3929,-277.7939C530.5383,-274.4092 520.1383,-262.7 488,-262.7"/>
<polygon fill="#000000" stroke="#000000" points="563.0153,-278.2047 570.7771,-282.2931 567.0077,-278.4523 571,-278.7 571,-278.7 571,-278.7 567.0077,-278.4523 571.2229,-275.1069 563.0153,-278.2047 563.0153,-278.2047"/>
<ellipse fill="none" stroke="#000000" cx="559.8215" cy="-278.0065" rx="3.2" ry="3.2"/>
</g>
<!-- ExampleTable -->
<g id="node8" class="node">
<title>ExampleTable</title>
<g id="a_node8"><a xlink:href="../../tables/ExampleTable.html" xlink:title="ExampleTable" target="_top">
<polygon fill="#ffffff" stroke="transparent" points="296.5,-318.2 296.5,-467.2 495.5,-467.2 495.5,-318.2 296.5,-318.2"/>
<polygon fill="#f5f5f5" stroke="transparent" points="297,-443.7 297,-466.7 496,-466.7 496,-443.7 297,-443.7"/>
<polygon fill="none" stroke="#000000" points="297,-443.7 297,-466.7 496,-466.7 496,-443.7 297,-443.7"/>
<text text-anchor="start" x="302" y="-452.3" font-family="Helvetica,sans-Serif" font-weight="bold" font-size="11.00" fill="#000000">ExampleTable</text>
<text text-anchor="start" x="461.0437" y="-451.8" font-family="Helvetica,sans-Serif" font-size="11.00" fill="#000000">[table]</text>
<polygon fill="none" stroke="#000000" points="297,-421.7 297,-443.7 496,-443.7 496,-421.7 297,-421.7"/>
<image xlink:href="../../images/primaryKeys.png" width="11px" height="12px" preserveAspectRatio="xMinYMin meet" x="302" y="-438.7"/>
<text text-anchor="start" x="317" y="-428.8" font-family="Helvetica,sans-Serif" font-size="11.00" fill="#000000">cldf_id</text>
<polygon fill="none" stroke="#000000" points="297,-399.7 297,-421.7 496,-421.7 496,-399.7 297,-399.7"/>
<image xlink:href="../../images/foreignKeys.png" width="11px" height="12px" preserveAspectRatio="xMinYMin meet" x="302" y="-416.7"/>
<text text-anchor="start" x="317" y="-406.8" font-family="Helvetica,sans-Serif" font-size="11.00" fill="#000000">cldf_languageReference</text>
<polygon fill="none" stroke="#000000" points="297,-377.7 297,-399.7 496,-399.7 496,-377.7 297,-377.7"/>
<image xlink:href="../../images/foreignKeys.png" width="11px" height="12px" preserveAspectRatio="xMinYMin meet" x="302" y="-394.7"/>
<text text-anchor="start" x="317" y="-384.8" font-family="Helvetica,sans-Serif" font-size="11.00" fill="#000000">cldf_metaLanguageReference</text>
<polygon fill="none" stroke="#000000" points="297,-355.7 297,-377.7 496,-377.7 496,-355.7 297,-355.7"/>
<image xlink:href="../../images/foreignKeys.png" width="11px" height="12px" preserveAspectRatio="xMinYMin meet" x="302" y="-372.7"/>
<text text-anchor="start" x="317" y="-362.8" font-family="Helvetica,sans-Serif" font-size="11.00" fill="#000000">cldf_contributionReference</text>
<polygon fill="none" stroke="#000000" points="297,-336.7 297,-355.7 496,-355.7 496,-336.7 297,-336.7"/>
<text text-anchor="start" x="300" y="-342.8" font-family="Helvetica,sans-Serif" font-size="11.00" fill="#000000">...</text>
<polygon fill="#ffffff" stroke="transparent" points="297,-317.7 297,-336.7 371,-336.7 371,-317.7 297,-317.7"/>
<polygon fill="none" stroke="#000000" points="297,-317.7 297,-336.7 371,-336.7 371,-317.7 297,-317.7"/>
<text text-anchor="start" x="300" y="-323.8" font-family="Helvetica,sans-Serif" font-size="11.00" fill="#000000">&lt; 3</text>
<polygon fill="#ffffff" stroke="transparent" points="371,-317.7 371,-336.7 448,-336.7 448,-317.7 371,-317.7"/>
<polygon fill="none" stroke="#000000" points="371,-317.7 371,-336.7 448,-336.7 448,-317.7 371,-317.7"/>
<text text-anchor="start" x="400.3807" y="-323.8" font-family="Helvetica,sans-Serif" font-size="11.00" fill="#000000">889 rows</text>
<polygon fill="#ffffff" stroke="transparent" points="448,-317.7 448,-336.7 496,-336.7 496,-317.7 448,-317.7"/>
<polygon fill="none" stroke="#000000" points="448,-317.7 448,-336.7 496,-336.7 496,-317.7 448,-317.7"/>
<text text-anchor="start" x="477.4053" y="-323.8" font-family="Helvetica,sans-Serif" font-size="11.00" fill="#000000">2 &gt;</text>
</a>
</g>
</g>
<!-- ExampleTable_MediaTable&#45;&gt;ExampleTable -->
<g id="edge8" class="edge">
<title>ExampleTable_MediaTable:w&#45;&gt;ExampleTable:e</title>
<path fill="none" stroke="#000000" d="M556.5448,-303.3368C512.6959,-321.9408 557.8082,-432.7 496,-432.7"/>
<polygon fill="#000000" stroke="#000000" points="563.1299,-302.1356 571.646,-304.2416 567.0649,-301.4178 571,-300.7 571,-300.7 571,-300.7 567.0649,-301.4178 570.354,-297.1584 563.1299,-302.1356 563.1299,-302.1356"/>
<ellipse fill="none" stroke="#000000" cx="559.9818" cy="-302.7099" rx="3.2" ry="3.2"/>
</g>
<!-- ExampleTable_referents.csv -->
<g id="node6" class="node">
<title>ExampleTable_referents.csv</title>
<g id="a_node6"><a xlink:href="../../tables/ExampleTable_referents.csv.html" xlink:title="ExampleTable_referents.csv" target="_top">
<polygon fill="#ffffff" stroke="transparent" points="566.5,-362.2 566.5,-467.2 771.5,-467.2 771.5,-362.2 566.5,-362.2"/>
<polygon fill="#f5f5f5" stroke="transparent" points="567,-443.7 567,-466.7 772,-466.7 772,-443.7 567,-443.7"/>
<polygon fill="none" stroke="#000000" points="567,-443.7 567,-466.7 772,-466.7 772,-443.7 567,-443.7"/>
<text text-anchor="start" x="572" y="-452.3" font-family="Helvetica,sans-Serif" font-weight="bold" font-size="11.00" fill="#000000">ExampleTable_referents.csv</text>
<text text-anchor="start" x="737.5219" y="-451.8" font-family="Helvetica,sans-Serif" font-size="11.00" fill="#000000">[table]</text>
<polygon fill="none" stroke="#000000" points="567,-421.7 567,-443.7 772,-443.7 772,-421.7 567,-421.7"/>
<image xlink:href="../../images/foreignKeys.png" width="11px" height="12px" preserveAspectRatio="xMinYMin meet" x="572" y="-438.7"/>
<text text-anchor="start" x="596" y="-428.8" font-family="Helvetica,sans-Serif" font-size="11.00" fill="#000000">ExampleTable_cldf_id</text>
<polygon fill="none" stroke="#000000" points="567,-399.7 567,-421.7 772,-421.7 772,-399.7 567,-399.7"/>
<image xlink:href="../../images/foreignKeys.png" width="11px" height="12px" preserveAspectRatio="xMinYMin meet" x="572" y="-416.7"/>
<text text-anchor="start" x="596" y="-406.8" font-family="Helvetica,sans-Serif" font-size="11.00" fill="#000000">referents.csv_cldf_id</text>
<polygon fill="none" stroke="#000000" points="567,-380.7 567,-399.7 772,-399.7 772,-380.7 567,-380.7"/>
<text text-anchor="start" x="570" y="-386.8" font-family="Helvetica,sans-Serif" font-size="11.00" fill="#000000">...</text>
<polygon fill="#ffffff" stroke="transparent" points="567,-361.7 567,-380.7 644,-380.7 644,-361.7 567,-361.7"/>
<polygon fill="none" stroke="#000000" points="567,-361.7 567,-380.7 644,-380.7 644,-361.7 567,-361.7"/>
<text text-anchor="start" x="570" y="-367.8" font-family="Helvetica,sans-Serif" font-size="11.00" fill="#000000">&lt; 2</text>
<polygon fill="#ffffff" stroke="transparent" points="644,-361.7 644,-380.7 731,-380.7 731,-361.7 644,-361.7"/>
<polygon fill="none" stroke="#000000" points="644,-361.7 644,-380.7 731,-380.7 731,-361.7 644,-361.7"/>
<text text-anchor="start" x="674.2089" y="-367.8" font-family="Helvetica,sans-Serif" font-size="11.00" fill="#000000">7,297 rows</text>
<polygon fill="#ffffff" stroke="transparent" points="731,-361.7 731,-380.7 772,-380.7 772,-361.7 731,-361.7"/>
<polygon fill="none" stroke="#000000" points="731,-361.7 731,-380.7 772,-380.7 772,-361.7 731,-361.7"/>
<text text-anchor="start" x="762.8862" y="-367.8" font-family="Helvetica,sans-Serif" font-size="11.00" fill="#000000"> &#160;</text>
</a>
</g>
</g>
<!-- ExampleTable_referents.csv&#45;&gt;ExampleTable -->
<g id="edge10" class="edge">
<title>ExampleTable_referents.csv:w&#45;&gt;ExampleTable:e</title>
<path fill="none" stroke="#000000" d="M552.5863,-432.7C532.0335,-432.7 522.1319,-432.7 496,-432.7"/>
<polygon fill="#000000" stroke="#000000" points="559,-432.7001 567,-436.3 563,-432.7 567,-432.7 567,-432.7 567,-432.7 563,-432.7 567,-429.1 559,-432.7001 559,-432.7001"/>
<ellipse fill="none" stroke="#000000" cx="555.8" cy="-432.7001" rx="3.2" ry="3.2"/>
</g>
<!-- ExampleTable_referents.csv&#45;&gt;referents.csv -->
<g id="edge11" class="edge">
<title>ExampleTable_referents.csv:w&#45;&gt;referents.csv:e</title>
<path fill="none" stroke="#000000" d="M552.8439,-413.3784C532.6455,-422.673 537.8045,-454.2479 517,-477.7 491.757,-506.1553 493.0383,-536.7 455,-536.7"/>
<polygon fill="#000000" stroke="#000000" points="559.1395,-412.1873 567.6693,-414.2372 563.0697,-411.4436 567,-410.7 567,-410.7 567,-410.7 563.0697,-411.4436 566.3307,-407.1628 559.1395,-412.1873 559.1395,-412.1873"/>
<ellipse fill="none" stroke="#000000" cx="555.9952" cy="-412.7822" rx="3.2" ry="3.2"/>
</g>
<!-- ContributionTable_SourceTable -->
<g id="node7" class="node">
<title>ContributionTable_SourceTable</title>
<g id="a_node7"><a xlink:href="../../tables/ContributionTable_SourceTable.html" xlink:title="ContributionTable_SourceTable" target="_top">
<polygon fill="#ffffff" stroke="transparent" points="283,-38.2 283,-143.2 509,-143.2 509,-38.2 283,-38.2"/>
<polygon fill="#f5f5f5" stroke="transparent" points="283,-119.7 283,-142.7 509,-142.7 509,-119.7 283,-119.7"/>
<polygon fill="none" stroke="#000000" points="283,-119.7 283,-142.7 509,-142.7 509,-119.7 283,-119.7"/>
<text text-anchor="start" x="288" y="-128.3" font-family="Helvetica,sans-Serif" font-weight="bold" font-size="11.00" fill="#000000">ContributionTable_SourceTable</text>
<text text-anchor="start" x="474.5219" y="-127.8" font-family="Helvetica,sans-Serif" font-size="11.00" fill="#000000">[table]</text>
<polygon fill="none" stroke="#000000" points="283,-97.7 283,-119.7 509,-119.7 509,-97.7 283,-97.7"/>
<image xlink:href="../../images/foreignKeys.png" width="11px" height="12px" preserveAspectRatio="xMinYMin meet" x="288" y="-114.7"/>
<text text-anchor="start" x="312" y="-104.8" font-family="Helvetica,sans-Serif" font-size="11.00" fill="#000000">ContributionTable_cldf_id</text>
<polygon fill="none" stroke="#000000" points="283,-75.7 283,-97.7 509,-97.7 509,-75.7 283,-75.7"/>
<image xlink:href="../../images/foreignKeys.png" width="11px" height="12px" preserveAspectRatio="xMinYMin meet" x="288" y="-92.7"/>
<text text-anchor="start" x="312" y="-82.8" font-family="Helvetica,sans-Serif" font-size="11.00" fill="#000000">SourceTable_id</text>
<polygon fill="none" stroke="#000000" points="283,-56.7 283,-75.7 509,-75.7 509,-56.7 283,-56.7"/>
<text text-anchor="start" x="286" y="-62.8" font-family="Helvetica,sans-Serif" font-size="11.00" fill="#000000">...</text>
<polygon fill="#ffffff" stroke="transparent" points="283,-37.7 283,-56.7 381,-56.7 381,-37.7 283,-37.7"/>
<polygon fill="none" stroke="#000000" points="283,-37.7 283,-56.7 381,-56.7 381,-37.7 283,-37.7"/>
<text text-anchor="start" x="286" y="-43.8" font-family="Helvetica,sans-Serif" font-size="11.00" fill="#000000">&lt; 2</text>
<polygon fill="#ffffff" stroke="transparent" points="381,-37.7 381,-56.7 458,-56.7 458,-37.7 381,-37.7"/>
<polygon fill="none" stroke="#000000" points="381,-37.7 381,-56.7 458,-56.7 458,-37.7 381,-37.7"/>
<text text-anchor="start" x="422.6105" y="-43.8" font-family="Helvetica,sans-Serif" font-size="11.00" fill="#000000">6 rows</text>
<polygon fill="#ffffff" stroke="transparent" points="458,-37.7 458,-56.7 509,-56.7 509,-37.7 458,-37.7"/>
<polygon fill="none" stroke="#000000" points="458,-37.7 458,-56.7 509,-56.7 509,-37.7 458,-37.7"/>
<text text-anchor="start" x="499.8862" y="-43.8" font-family="Helvetica,sans-Serif" font-size="11.00" fill="#000000"> &#160;</text>
</a>
</g>
</g>
<!-- ContributionTable_SourceTable&#45;&gt;SourceTable -->
<g id="edge4" class="edge">
<title>ContributionTable_SourceTable:w&#45;&gt;SourceTable:e</title>
<path fill="none" stroke="#000000" d="M268.2471,-86.7C232.7671,-86.7 218.7743,-86.7 177,-86.7"/>
<polygon fill="#000000" stroke="#000000" points="275,-86.7001 283,-90.3 279,-86.7 283,-86.7 283,-86.7 283,-86.7 279,-86.7 283,-83.1 275,-86.7001 275,-86.7001"/>
<ellipse fill="none" stroke="#000000" cx="271.8" cy="-86.7001" rx="3.2" ry="3.2"/>
</g>
<!-- ContributionTable_SourceTable&#45;&gt;ContributionTable -->
<g id="edge3" class="edge">
<title>ContributionTable_SourceTable:w&#45;&gt;ContributionTable:e</title>
<path fill="none" stroke="#000000" d="M269.0652,-112.5082C241.9094,-131.5691 280.3797,-215.7 234,-215.7"/>
<polygon fill="#000000" stroke="#000000" points="275.283,-110.809 283.9491,-112.1727 279.1415,-109.7545 283,-108.7 283,-108.7 283,-108.7 279.1415,-109.7545 282.0509,-105.2273 275.283,-110.809 275.283,-110.809"/>
<ellipse fill="none" stroke="#000000" cx="272.1962" cy="-111.6526" rx="3.2" ry="3.2"/>
</g>
<!-- LanguageTable -->
<g id="node9" class="node">
<title>LanguageTable</title>
<g id="a_node9"><a xlink:href="../../tables/LanguageTable.html" xlink:title="LanguageTable" target="_top">
<polygon fill="#ffffff" stroke="transparent" points="56,-351.2 56,-434.2 186,-434.2 186,-351.2 56,-351.2"/>
<polygon fill="#f5f5f5" stroke="transparent" points="56,-410.7 56,-433.7 186,-433.7 186,-410.7 56,-410.7"/>
<polygon fill="none" stroke="#000000" points="56,-410.7 56,-433.7 186,-433.7 186,-410.7 56,-410.7"/>
<text text-anchor="start" x="61" y="-419.3" font-family="Helvetica,sans-Serif" font-weight="bold" font-size="11.00" fill="#000000">LanguageTable</text>
<text text-anchor="start" x="151.5219" y="-418.8" font-family="Helvetica,sans-Serif" font-size="11.00" fill="#000000">[table]</text>
<polygon fill="none" stroke="#000000" points="56,-388.7 56,-410.7 186,-410.7 186,-388.7 56,-388.7"/>
<image xlink:href="../../images/primaryKeys.png" width="11px" height="12px" preserveAspectRatio="xMinYMin meet" x="61" y="-405.7"/>
<text text-anchor="start" x="77" y="-395.8" font-family="Helvetica,sans-Serif" font-size="11.00" fill="#000000">cldf_id</text>
<polygon fill="none" stroke="#000000" points="56,-369.7 56,-388.7 186,-388.7 186,-369.7 56,-369.7"/>
<text text-anchor="start" x="59" y="-375.8" font-family="Helvetica,sans-Serif" font-size="11.00" fill="#000000">...</text>
<polygon fill="#ffffff" stroke="transparent" points="56,-350.7 56,-369.7 97,-369.7 97,-350.7 56,-350.7"/>
<polygon fill="none" stroke="#000000" points="56,-350.7 56,-369.7 97,-369.7 97,-350.7 56,-350.7"/>
<text text-anchor="start" x="59" y="-356.8" font-family="Helvetica,sans-Serif" font-size="11.00" fill="#000000"> &#160;</text>
<polygon fill="#ffffff" stroke="transparent" points="97,-350.7 97,-369.7 150,-369.7 150,-350.7 97,-350.7"/>
<polygon fill="none" stroke="#000000" points="97,-350.7 97,-369.7 150,-369.7 150,-350.7 97,-350.7"/>
<text text-anchor="start" x="114.6105" y="-356.8" font-family="Helvetica,sans-Serif" font-size="11.00" fill="#000000">2 rows</text>
<polygon fill="#ffffff" stroke="transparent" points="150,-350.7 150,-369.7 186,-369.7 186,-350.7 150,-350.7"/>
<polygon fill="none" stroke="#000000" points="150,-350.7 150,-369.7 186,-369.7 186,-350.7 150,-350.7"/>
<text text-anchor="start" x="167.4053" y="-356.8" font-family="Helvetica,sans-Serif" font-size="11.00" fill="#000000">2 &gt;</text>
</a>
</g>
</g>
<!-- ExampleTable&#45;&gt;LanguageTable -->
<g id="edge6" class="edge">
<title>ExampleTable:w&#45;&gt;LanguageTable:e</title>
<path fill="none" stroke="#000000" d="M282.4846,-410.3587C244.5058,-408.502 230.3464,-399.7 186,-399.7"/>
<polygon fill="#000000" stroke="#000000" points="289.0022,-410.5119 296.9154,-414.299 293.0011,-410.606 297,-410.7 297,-410.7 297,-410.7 293.0011,-410.606 297.0846,-407.101 289.0022,-410.5119 289.0022,-410.5119"/>
<ellipse fill="none" stroke="#000000" cx="285.8031" cy="-410.4367" rx="3.2" ry="3.2"/>
</g>
<!-- ExampleTable&#45;&gt;LanguageTable -->
<g id="edge7" class="edge">
<title>ExampleTable:w&#45;&gt;LanguageTable:e</title>
<path fill="none" stroke="#000000" d="M282.4846,-389.0413C244.5058,-390.898 230.3464,-399.7 186,-399.7"/>
<polygon fill="#000000" stroke="#000000" points="289.0022,-388.8881 297.0846,-392.299 293.0011,-388.794 297,-388.7 297,-388.7 297,-388.7 293.0011,-388.794 296.9154,-385.101 289.0022,-388.8881 289.0022,-388.8881"/>
<ellipse fill="none" stroke="#000000" cx="285.8031" cy="-388.9633" rx="3.2" ry="3.2"/>
</g>
<!-- ExampleTable&#45;&gt;ContributionTable -->
<g id="edge5" class="edge">
<title>ExampleTable:w&#45;&gt;ContributionTable:e</title>
<path fill="none" stroke="#000000" d="M282.6497,-364.0791C236.2157,-344.0279 301.0369,-215.7 234,-215.7"/>
<polygon fill="#000000" stroke="#000000" points="289.1302,-365.2626 296.3532,-370.2414 293.0651,-365.9813 297,-366.7 297,-366.7 297,-366.7 293.0651,-365.9813 297.6468,-363.1586 289.1302,-365.2626 289.1302,-365.2626"/>
<ellipse fill="none" stroke="#000000" cx="285.9822" cy="-364.6877" rx="3.2" ry="3.2"/>
</g>
</g>
</svg>
